<?xml version="1.0" standalone="no"?>
<!DOCTYPE svg PUBLIC "-//W3C//DTD SVG 20010904//EN"
 "http://www.w3.org/TR/2001/REC-SVG-20010904/DTD/svg10.dtd">
<svg version="1.0" xmlns="http://www.w3.org/2000/svg"
 width="736.000000pt" height="400.000000pt" viewBox="0 0 736.000000 400.000000"
 preserveAspectRatio="xMidYMid meet">

<g transform="translate(0.000000,400.000000) scale(0.100000,-0.100000)"
fill="#000000" stroke="none">
<path d="M1769 3853 l-24 -28 28 24 c25 23 32 31 24 31 -2 0 -14 -12 -28 -27z"/>
<path d="M1699 3783 l-34 -38 38 34 c20 19 37 36 37 38 0 8 -8 0 -41 -34z"/>
<path d="M3775 3311 c-159 -74 -207 -341 -87 -481 116 -136 345 -112 418 43
l24 52 -48 3 c-36 3 -49 -1 -57 -14 -29 -50 -58 -73 -101 -82 -122 -26 -203
54 -204 201 0 133 60 210 164 211 62 1 109 -28 127 -79 12 -33 15 -35 62 -35
49 0 49 0 42 28 -20 80 -73 139 -144 161 -58 17 -150 13 -196 -8z"/>
<path d="M6290 3035 l0 -285 45 0 45 0 0 120 0 119 113 3 112 3 0 35 0 35
-113 3 -113 3 3 85 3 85 120 2 120 2 3 38 3 37 -170 0 -171 0 0 -285z"/>
<path d="M5125 3261 c-3 -2 -5 -26 -5 -52 l0 -48 -37 -3 c-35 -3 -38 -6 -38
-33 0 -27 3 -30 38 -33 l37 -3 0 -144 0 -143 31 -27 c28 -23 39 -26 93 -23 61
3 61 3 64 36 3 31 2 32 -36 32 -64 0 -72 17 -72 153 l0 117 56 0 55 0 -3 33
c-3 31 -4 32 -55 35 l-53 3 0 55 0 55 -35 -3 c-20 -1 -38 -4 -40 -7z"/>
<path d="M2304 3102 c-2 -205 -44 -393 -126 -557 -103 -205 -251 -356 -543
-555 -181 -124 -287 -230 -358 -360 -162 -294 -154 -639 22 -993 124 -248 259
-399 471 -523 47 -27 226 -104 243 -104 2 0 -7 37 -20 82 -29 97 -35 263 -14
363 30 138 118 304 202 380 21 19 62 47 91 62 51 27 57 28 168 23 248 -10 342
-7 384 15 66 33 80 62 76 152 -6 139 -4 152 28 187 68 73 78 112 37 150 -33
31 -32 46 10 79 44 35 45 67 6 129 -16 25 -32 55 -36 67 -9 28 15 56 61 71 18
6 45 25 60 43 52 61 19 128 -169 351 -85 99 -93 124 -100 301 -7 180 -28 271
-91 400 -51 104 -129 202 -207 262 -51 39 -173 113 -187 113 -4 0 -8 -62 -8
-138z m-257 -1394 c-16 -320 -103 -530 -314 -758 -49 -53 -385 -350 -396 -350
-2 0 -16 27 -31 59 -91 203 -95 474 -11 667 102 233 324 409 604 479 99 25
129 32 145 34 5 1 6 -54 3 -131z"/>
<path d="M4295 3152 c-133 -62 -158 -270 -45 -365 62 -53 171 -59 236 -15 34
24 68 71 57 82 -10 9 -83 7 -83 -3 0 -18 -71 -43 -105 -37 -40 8 -85 57 -85
91 l0 24 138 3 137 3 0 61 c0 101 -56 161 -158 170 -38 4 -63 0 -92 -14z m124
-67 c23 -11 51 -57 51 -81 0 -2 -45 -4 -100 -4 -89 0 -100 2 -100 18 1 21 17
42 50 65 30 21 62 22 99 2z"/>
<path d="M4780 3159 c-14 -5 -35 -20 -47 -31 l-23 -21 0 26 c0 25 -3 27 -40
27 l-40 0 0 -205 0 -205 40 0 40 0 0 118 c0 135 11 184 45 206 37 24 91 21
120 -9 24 -23 25 -28 25 -170 l0 -145 40 0 40 0 0 156 c0 168 -10 210 -55 240
-29 19 -113 27 -145 13z"/>
<path d="M5547 3163 c-20 -3 -35 -16 -50 -41 l-22 -37 -3 38 c-3 36 -4 37 -43
37 l-39 0 2 -202 3 -203 40 -3 40 -3 0 130 c0 153 10 176 88 201 45 14 47 17
47 53 0 39 0 39 -63 30z"/>
<path d="M5773 3159 c-141 -41 -170 -301 -43 -385 83 -55 215 -36 260 38 11
18 20 36 20 41 0 17 -71 5 -106 -18 -42 -29 -61 -31 -109 -11 -35 15 -48 32
-59 79 l-6 27 145 0 145 0 0 25 c0 157 -107 245 -247 204z m135 -94 c12 -14
22 -35 22 -46 0 -18 -8 -19 -100 -19 -107 0 -109 1 -73 55 34 51 110 56 151
10z"/>
<path d="M6772 3149 c-203 -103 -110 -440 112 -405 155 25 226 209 133 346
-49 73 -164 101 -245 59z m128 -64 c49 -25 70 -61 70 -122 0 -92 -41 -143
-115 -143 -69 1 -105 46 -105 133 0 71 20 114 63 132 41 18 52 18 87 0z"/>
<path d="M7285 3161 c-11 -5 -29 -19 -40 -31 l-20 -22 -5 24 c-5 18 -13 24
-43 26 l-37 3 0 -205 0 -206 39 0 39 0 4 140 c3 159 12 177 85 189 37 6 38 8
38 46 0 33 -4 40 -20 42 -11 1 -29 -2 -40 -6z"/>
<path d="M29 2573 c-9 -38 -14 -132 -14 -268 0 -186 3 -220 23 -298 50 -198
129 -344 252 -468 90 -91 158 -138 310 -214 218 -109 328 -200 474 -392 106
-139 108 -137 20 17 -85 149 -104 215 -189 672 -43 233 -110 420 -198 556
-128 198 -351 360 -587 429 -30 9 -60 18 -67 20 -7 3 -16 -18 -24 -54z m481
-673 c135 -166 228 -319 294 -485 43 -109 36 -101 -111 120 -122 183 -250 387
-289 460 l-26 50 27 -25 c15 -14 62 -68 105 -120z"/>
<path d="M7040 2215 l0 -305 40 0 40 0 0 305 0 305 -40 0 -40 0 0 -305z"/>
<path d="M3650 2488 c-1 -2 -3 -130 -5 -285 l-4 -281 22 -6 c12 -3 91 -6 175
-6 l152 0 0 40 0 39 -127 3 -128 3 0 85 0 85 118 3 117 3 0 39 0 40 -120 0
-120 0 0 75 0 75 84 0 c46 0 104 3 130 6 47 7 47 7 44 43 l-3 36 -167 3 c-93
1 -168 1 -168 0z"/>
<path d="M5530 2469 c-26 -47 25 -100 69 -72 20 13 26 60 10 79 -18 22 -66 18
-79 -7z"/>
<path d="M5273 2433 c-21 -4 -23 -10 -23 -59 l0 -54 -36 0 c-34 0 -35 -1 -32
-32 3 -29 7 -33 36 -36 l32 -3 0 -138 c0 -124 2 -141 20 -164 25 -32 73 -47
126 -38 36 6 39 9 42 43 3 37 3 37 -31 31 -27 -4 -40 0 -56 16 -19 19 -21 32
-21 136 l0 115 55 0 55 0 0 35 0 35 -55 0 -55 0 0 60 c0 64 0 64 -57 53z"/>
<path d="M4084 2315 c-3 -6 -3 -98 -2 -205 l3 -195 37 -3 36 -3 4 140 c3 122
6 143 24 167 38 51 104 48 131 -6 8 -16 13 -72 13 -163 l0 -138 38 3 37 3 5
142 c5 133 7 143 29 167 31 33 89 36 117 5 16 -18 20 -42 24 -168 l5 -146 40
0 40 0 0 160 c-1 178 -10 212 -65 240 -56 29 -152 12 -187 -34 -12 -14 -14
-14 -30 5 -50 60 -135 60 -202 0 l-24 -21 7 26 c5 25 4 27 -35 31 -24 2 -43
-1 -45 -7z"/>
<path d="M4848 2310 c-112 -60 -143 -225 -64 -333 52 -71 183 -95 259 -48 62
38 89 89 94 174 4 61 1 79 -19 116 -13 25 -40 58 -61 75 -33 26 -48 31 -105
33 -52 3 -75 -1 -104 -17z m137 -64 c44 -19 68 -65 67 -133 -1 -89 -41 -133
-121 -133 -32 0 -45 6 -71 37 -31 35 -32 39 -28 109 2 54 8 78 23 94 36 41 76
48 130 26z"/>
<path d="M5567 2323 l-37 -4 2 -202 3 -202 38 -3 37 -3 0 210 c0 116 -1 210
-2 209 -2 -1 -20 -3 -41 -5z"/>
<path d="M5821 2319 c-45 -18 -79 -49 -98 -91 -28 -61 -34 -100 -23 -160 21
-106 90 -164 197 -161 70 2 109 19 146 62 36 43 50 94 45 164 -8 125 -78 198
-187 196 -31 0 -67 -5 -80 -10z m134 -81 c53 -41 68 -115 39 -187 -19 -49 -51
-71 -101 -71 -68 0 -113 54 -113 134 0 115 98 185 175 124z"/>
<path d="M6292 2305 c-36 -30 -42 -31 -42 -5 0 17 -7 20 -40 20 l-40 0 2 -202
3 -203 38 -3 37 -3 0 140 c0 134 1 141 25 169 30 36 68 47 105 32 43 -18 50
-44 52 -195 l3 -140 37 -3 37 -3 3 128 c4 189 -1 219 -45 259 -32 30 -43 34
-91 34 -44 0 -60 -5 -84 -25z"/>
<path d="M6693 2315 c-46 -20 -83 -60 -83 -90 0 -22 4 -25 34 -25 25 0 43 8
64 30 36 36 78 39 116 9 17 -13 26 -30 26 -49 0 -27 -1 -28 -85 -41 -100 -14
-141 -36 -161 -86 -21 -49 -11 -95 27 -127 47 -40 134 -40 186 0 39 29 41 30
45 2 2 -19 9 -23 38 -23 l35 0 0 160 c0 153 -1 162 -24 194 -13 18 -39 40 -57
47 -42 18 -120 17 -161 -1z m153 -282 c-8 -28 -60 -63 -96 -63 -58 0 -91 58
-52 92 17 16 77 36 122 40 20 2 26 -2 28 -21 2 -13 1 -34 -2 -48z"/>
<path d="M1259 1823 c-13 -16 -12 -17 4 -4 9 7 17 15 17 17 0 8 -8 3 -21 -13z"/>
<path d="M4842 1672 l-32 -3 2 -292 3 -292 43 -3 42 -3 0 294 c0 320 3 305
-58 299z"/>
<path d="M3605 1660 c-2 -3 9 -50 25 -105 16 -55 52 -185 81 -288 l52 -188 51
3 51 3 16 60 c78 282 108 378 113 364 4 -9 33 -108 65 -220 l59 -204 49 -3 49
-3 32 113 c71 257 110 405 117 436 l7 32 -45 0 -45 0 -47 -192 c-74 -300 -62
-293 -124 -72 -29 104 -57 206 -63 227 -11 36 -12 37 -58 37 l-47 0 -31 -117
c-18 -65 -43 -161 -57 -213 -35 -129 -34 -129 -44 -110 -5 8 -32 110 -61 227
l-52 211 -45 4 c-25 2 -46 1 -48 -2z"/>
<path d="M5000 1375 l0 -295 40 0 40 0 0 295 0 295 -40 0 -40 0 0 -295z"/>
<path d="M1041 1594 c0 -11 3 -14 6 -6 3 7 2 16 -1 19 -3 4 -6 -2 -5 -13z"/>
<path d="M1043 1485 c0 -27 2 -38 4 -22 2 15 2 37 0 50 -2 12 -4 0 -4 -28z"/>
<path d="M4470 1473 c-19 -10 -48 -37 -65 -61 -26 -38 -30 -54 -33 -120 -3
-66 0 -83 20 -122 41 -77 111 -109 204 -95 51 7 124 64 124 96 0 27 -60 26
-85 -1 -41 -46 -131 -33 -166 24 -39 64 -35 66 120 66 159 0 156 -1 141 83
-18 94 -69 139 -163 145 -46 2 -71 -2 -97 -15z m153 -84 c15 -16 27 -38 27
-49 0 -19 -7 -20 -95 -20 -93 0 -95 1 -95 23 0 13 12 35 28 49 48 45 90 45
135 -3z"/>
<path d="M5308 1473 c-16 -10 -28 -21 -28 -25 0 -5 -5 -8 -11 -8 -6 0 -9 9 -6
20 5 18 0 20 -39 20 l-44 0 0 -169 c0 -93 3 -183 6 -200 6 -28 10 -31 45 -31
l39 0 0 141 0 141 29 29 c39 38 88 40 122 3 23 -24 24 -33 27 -170 l4 -144 39
0 39 0 0 143 c0 159 -8 203 -45 237 -34 32 -136 40 -177 13z"/>
<path d="M5715 1476 c-71 -31 -110 -114 -103 -222 4 -72 39 -134 88 -159 50
-26 123 -30 175 -11 45 18 95 66 95 92 0 24 -65 17 -106 -11 -42 -29 -73 -31
-115 -10 -28 15 -36 28 -53 83 l-7 22 146 0 146 0 -7 58 c-9 79 -36 127 -84
152 -46 23 -129 26 -175 6z m153 -82 c12 -14 22 -36 22 -50 0 -24 -1 -24 -100
-24 -55 0 -100 2 -100 5 0 3 9 23 20 44 32 65 112 77 158 25z"/>
<path d="M6089 1467 c-68 -46 -72 -147 -7 -187 16 -10 56 -23 88 -29 32 -7 69
-20 81 -30 20 -16 22 -22 12 -44 -20 -44 -117 -48 -147 -6 -13 19 -78 30 -92
16 -14 -14 34 -73 76 -94 86 -44 206 -18 235 51 20 47 19 75 -5 113 -15 25
-31 36 -77 48 -109 31 -123 37 -133 56 -9 15 -6 24 14 44 35 35 70 32 114 -11
25 -25 42 -34 57 -30 11 3 23 6 28 6 10 0 9 25 -4 53 -29 65 -171 91 -240 44z"/>
<path d="M6483 1474 c-84 -42 -87 -156 -5 -197 15 -8 52 -20 82 -27 61 -14 90
-34 90 -61 0 -49 -102 -67 -142 -25 -28 29 -98 43 -98 19 0 -25 31 -69 61 -87
61 -36 167 -29 222 14 14 11 31 36 37 56 10 30 9 42 -5 74 -20 44 -55 65 -139
82 -62 12 -91 36 -82 66 15 47 103 51 133 6 11 -17 25 -24 49 -24 18 0 35 3
38 8 10 16 -25 73 -56 92 -41 25 -138 27 -185 4z"/>
<path d="M1052 1360 c0 -14 2 -19 5 -12 2 6 2 18 0 25 -3 6 -5 1 -5 -13z"/>
<path d="M4245 808 c-33 -26 -55 -75 -55 -123 0 -32 -2 -35 -29 -35 -29 0 -41
-14 -41 -51 0 -12 7 -19 19 -19 51 0 51 -1 51 -176 l0 -164 40 0 40 0 0 165
c0 164 0 165 23 166 86 3 82 2 82 39 l0 35 -50 1 -50 1 1 37 c2 45 28 76 64
76 23 0 28 5 32 30 3 17 2 32 0 35 -3 3 -26 5 -52 5 -33 0 -55 -6 -75 -22z"/>
<path d="M4732 808 c-17 -17 -15 -53 4 -72 35 -36 87 -6 82 48 -3 28 -7 31
-38 34 -19 2 -41 -3 -48 -10z"/>
<path d="M3799 783 c-6 -16 -35 -98 -65 -183 -30 -85 -71 -197 -90 -249 -18
-52 -34 -98 -34 -103 0 -4 20 -8 44 -8 l45 0 22 69 22 69 86 6 c128 9 142 3
167 -75 l22 -64 46 -3 c25 -2 46 1 46 5 0 8 -39 122 -121 353 -17 47 -40 113
-52 148 l-21 62 -53 0 c-49 0 -54 -2 -64 -27z m105 -191 c20 -57 36 -110 36
-118 0 -11 -19 -14 -86 -14 -65 0 -84 3 -81 13 3 6 23 63 43 124 21 62 41 109
45 105 4 -4 23 -54 43 -110z"/>
<path d="M4590 649 c-14 -5 -35 -22 -47 -37 l-23 -27 0 33 c0 31 -2 32 -40 32
l-40 0 0 -205 0 -205 45 0 45 0 0 140 c0 136 1 142 24 165 14 14 42 27 66 31
40 7 41 8 38 43 -3 40 -22 48 -68 30z"/>
<path d="M5027 645 c-48 -17 -83 -48 -110 -100 -30 -55 -29 -154 1 -212 67
-130 263 -136 328 -11 21 40 18 48 -22 48 -27 0 -41 -7 -60 -30 -31 -37 -80
-48 -121 -26 -85 43 -84 220 1 260 45 21 102 6 124 -35 14 -24 23 -29 56 -29
37 0 38 1 32 28 -11 43 -38 75 -86 100 -50 25 -88 27 -143 7z"/>
<path d="M5405 639 c-74 -37 -98 -92 -45 -104 25 -5 37 -1 66 24 41 37 80 40
118 10 17 -14 26 -30 26 -50 0 -28 -2 -29 -43 -29 -51 0 -142 -25 -173 -48
-46 -33 -56 -105 -24 -157 36 -59 124 -72 196 -30 42 24 43 25 49 5 5 -15 15
-20 41 -20 l34 0 0 164 c0 164 0 165 -27 197 -51 60 -142 76 -218 38z m165
-234 c0 -79 -87 -132 -148 -89 -30 21 -30 67 1 87 29 19 51 24 105 26 39 1 42
-1 42 -24z"/>
<path d="M4730 445 l0 -205 40 0 40 0 0 205 0 205 -40 0 -40 0 0 -205z"/>
</g>
</svg>
